<svg t="1691656227711" class="icon" viewBox="0 0 1024 1024" version="1.1" xmlns="http://www.w3.org/2000/svg" p-id="10221" width="64" height="64"><path d="M478.9 742.9l-61.8-61.8 334.4-334.4c57.5-57.6 57.5-151.2 0-208.7-27.9-27.9-65-43.2-104.4-43.2-39.4 0-76.5 15.4-104.4 43.2L208.4 472.4l-61.8-61.8L481 76.3C525.4 31.9 584.4 7.5 647.1 7.5c62.7 0 121.8 24.4 166.1 68.8 91.6 91.6 91.6 240.7 0 332.3L478.9 742.9z" p-id="10222" fill="#409eff"></path><path d="M377 1018c-60.2 0-120.3-22.9-166.1-68.7-44.4-44.4-68.9-103.4-68.9-166.2s24.4-121.8 68.8-166.1l334.3-334.4 61.8 61.8-334.3 334.4c-27.9 27.9-43.2 65-43.2 104.4s15.4 76.5 43.2 104.4c27.9 27.9 64.9 43.2 104.4 43.2s76.5-15.4 104.4-43.2l334.4-334.3 61.8 61.8-334.5 334.2c-45.8 45.8-106 68.7-166.1 68.7z" p-id="10223" fill="#409eff"></path></svg>